<svg width="278" height="204" viewBox="0 0 278 204" fill="none" xmlns="http://www.w3.org/2000/svg">
<path d="M27.8582 39.8585L14 40.3491V100.32V160.413H79.3667C115.177 160.413 145.224 159.922 145.96 159.432C146.818 158.941 147.799 155.385 148.29 151.46L149.148 144.347L154.299 144.715L159.327 145.083L159.941 152.441L160.554 159.8L206.544 160.168C231.807 160.29 254.373 160.168 256.58 159.8L260.505 159.064L260.259 99.4612L259.892 39.8585L150.743 39.6133C90.6495 39.4906 35.3392 39.6133 27.8582 39.8585ZM250.816 62.5468C250.939 69.5372 251.062 92.2255 251.184 112.951L251.307 150.724L240.882 150.356L230.458 149.989L230.826 144.838C231.439 136.498 230.458 134.659 225.062 134.659H220.524L219.298 142.262L218.194 149.989H208.996H199.798L199.43 146.309C198.449 135.027 198.204 134.536 193.298 134.904L188.761 135.272L188.393 142.875L188.025 150.602H180.299H172.572L171.714 142.017L170.856 133.432H155.035C144.488 133.432 138.969 133.923 138.356 134.781C137.866 135.64 137.13 139.319 136.762 143.121L136.026 149.989H128.054H120.083L119.715 142.385L119.347 134.659H114.564H109.781L109.413 142.262L109.045 149.989L98.989 150.356L88.8099 150.724V142.63V134.659H83.2911H77.895L77.5271 142.262L77.1592 149.989L67.2254 150.356L57.2916 150.724L56.6784 142.63C56.3105 138.215 55.6973 134.168 55.2068 133.8C54.8388 133.432 52.754 133.555 50.5465 134.168C46.622 135.272 46.4994 135.517 46.1315 142.998L45.7635 150.602H36.0751H26.2639L26.0186 100.81C25.7734 73.4617 25.896 50.7734 26.1413 50.5281C26.3866 50.2829 77.0365 50.0376 138.724 50.0376H250.694L250.816 62.5468Z" fill="white"/>
<path d="M46.3765 72.4806C46.1312 73.339 46.0086 82.9049 46.1312 93.5745L46.4992 113.197H63.0554H79.6117L80.2249 94.8009C81.0834 68.0656 83.0456 70.8863 63.546 70.8863C51.1594 70.8863 46.8671 71.2542 46.3765 72.4806ZM69.4327 83.1502C69.678 83.7634 69.678 88.301 69.4327 93.2066L69.0648 102.159L62.9328 102.405L56.9235 102.65V93.0839C56.9235 87.8105 57.2914 83.1502 57.782 82.7823C59.0084 81.4332 68.9421 81.8011 69.4327 83.1502Z" fill="white"/>
<path d="M94.3287 72.4806C93.9608 73.339 93.8381 82.9049 93.9608 93.5745L94.3287 113.197H110.885H127.441V92.3481V71.4994L111.13 71.1315C98.6211 70.8862 94.6966 71.1315 94.3287 72.4806ZM117.017 92.3481V102.895L110.885 102.65L104.753 102.282V92.9613C104.753 87.8105 105.121 83.1502 105.612 82.7823C105.979 82.2917 108.8 81.9238 111.743 81.9238H117.017V92.3481Z" fill="white"/>
<path d="M149.761 71.6218C149.271 72.1124 148.903 81.8009 148.903 93.2063V113.932L165.827 113.564L182.629 113.197V92.3479V71.4992L166.563 71.1313C157.856 71.0086 150.252 71.2539 149.761 71.6218ZM172.204 92.3479V102.772H166.808C163.742 102.772 161.044 102.404 160.676 101.791C160.431 101.301 159.818 96.8855 159.45 92.1026C158.714 82.2914 158.714 82.2914 167.667 82.0462L172.204 81.9235V92.3479Z" fill="white"/>
<path d="M196.487 71.622C195.996 71.9899 195.628 81.3105 195.506 92.348C195.383 109.64 195.628 112.338 197.345 113.074C199.921 114.055 222.241 114.055 227.269 113.074L231.071 112.216V93.5744C231.071 83.1501 230.703 73.9521 230.335 72.8484C229.722 71.1314 227.024 70.8862 213.411 70.8862C204.458 70.8862 196.855 71.2541 196.487 71.622ZM218.807 92.348V102.772H213.288H207.77V92.348V81.9237H213.288H218.807V92.348Z" fill="white"/>
<path d="M263.571 99.7065C263.571 132.819 263.693 146.064 263.816 129.385C264.061 112.584 264.061 85.603 263.816 69.2919C263.693 52.9809 263.571 66.5939 263.571 99.7065Z" fill="white"/>
<path d="M26.509 163.724C32.3956 163.969 42.3294 163.969 48.584 163.724C54.8386 163.601 50.0557 163.356 37.9144 163.356C25.7731 163.356 20.6223 163.601 26.509 163.724Z" fill="white"/>
<path d="M65.8764 163.724C66.367 164.092 67.1028 164.092 67.5934 163.724C67.9613 163.234 67.5934 162.866 66.7349 162.866C65.8764 162.866 65.5085 163.234 65.8764 163.724Z" fill="white"/>
<path d="M90.4043 163.724C92.2439 163.969 95.1872 163.969 97.1495 163.724C98.9891 163.479 97.3948 163.233 93.7156 163.233C90.0364 163.233 88.4421 163.479 90.4043 163.724Z" fill="white"/>
<path d="M114.319 163.724C117.876 163.969 123.394 163.969 126.583 163.724C129.772 163.479 126.828 163.356 120.083 163.356C113.338 163.356 110.762 163.479 114.319 163.724Z" fill="white"/>
<path d="M165.705 163.724C167.912 163.969 171.837 163.969 174.29 163.724C176.865 163.479 175.148 163.233 170.365 163.233C165.705 163.233 163.62 163.479 165.705 163.724Z" fill="white"/>
<path d="M198.327 163.724C201.515 163.969 206.543 163.969 209.364 163.724C212.185 163.479 209.609 163.356 203.477 163.356C197.468 163.356 195.138 163.479 198.327 163.724Z" fill="white"/>
<path d="M225.307 163.724C231.194 163.969 240.637 163.969 246.156 163.724C251.675 163.601 246.892 163.356 235.364 163.356C223.958 163.356 219.421 163.601 225.307 163.724Z" fill="white"/>
</svg>
