<svg width="277" height="300" viewBox="0 0 277 300" fill="none" xmlns="http://www.w3.org/2000/svg">
<path d="M84.5259 18.0993C81.7259 19.2914 81.4593 20.2185 81.4593 30.5497V41.9404L55.8593 42.2053L30.1259 42.6026L29.7259 67.3708C29.3259 95.8477 30.7926 93.3311 14.7926 93.8609C6.7926 94.2583 6.12593 94.5232 4.92593 97.8344C2.7926 103.927 5.45927 105.517 18.3926 105.517H29.5926L29.1926 115.715L28.7926 126.046L16.7926 126.709C3.85927 127.371 2.92593 128.166 4.65927 135.318C5.45927 138.364 6.12593 138.497 17.1926 138.894L28.7926 139.291L29.1926 150.152L29.5926 161.146H17.4593H5.45927V167.106V172.934L17.0593 173.331L28.7926 173.728V184.324V194.921L16.7926 195.583C5.1926 196.245 4.7926 196.377 4.3926 199.556C3.85927 205.649 5.85927 206.841 18.1259 207.371L29.4593 207.768V231.344C29.4593 251.079 29.8593 255.318 31.5926 257.04C33.3259 258.762 37.5926 259.159 57.4593 259.159H81.3259L81.7259 270.682L82.1259 282.338H87.4593H92.7926L93.1926 270.682L93.5926 259.159H103.993C116.126 259.159 116.126 259.026 116.126 273.993V283H121.459H126.659L127.059 271.344L127.459 259.821L137.993 259.424C145.593 259.159 148.926 259.556 149.593 260.748C150.259 261.675 150.793 267.106 150.793 272.669V283H156.126H161.326L161.726 271.344L162.126 259.821H172.793H183.459L183.859 271.477L184.259 283H190.126H196.126V271.212V259.424L220.793 258.894C241.059 258.629 245.726 258.099 246.793 256.51C247.459 255.45 248.126 243.927 248.126 230.947V207.503H255.993C260.259 207.503 265.726 207.106 267.993 206.709C271.726 205.914 272.126 205.384 272.126 200.748V195.715L260.526 195.318L248.793 194.921L248.393 183.927L247.993 173.066H260.126C272.926 173.066 272.926 173.066 272.126 165.781C271.726 161.94 271.459 161.808 263.059 162.205C258.926 162.338 253.859 162.205 251.726 161.675L247.993 160.881L248.393 150.152L248.793 139.291L260.259 138.894L271.859 138.497L272.393 134.656C273.459 127.636 271.859 126.709 259.459 126.709H248.126V116.113V105.649L259.859 105.252L271.459 104.854L271.859 99.1589L272.259 93.596H260.259H248.126L247.993 70.6821C247.859 58.2318 247.859 47.3708 247.993 46.7086C248.126 46.1788 247.459 44.8543 246.659 43.7947C245.459 42.3377 239.993 41.9404 220.659 41.9404H196.259L195.859 29.6225L195.459 17.4371H190.126H184.793L184.393 29.7549L183.993 42.0728L173.059 41.6755L162.126 41.2781L161.459 29.3576L160.793 17.4371L156.393 17.0397C151.326 16.5099 151.326 16.6424 150.126 30.1523L149.326 40.2185L139.726 41.0132C134.126 41.4106 129.459 41.1457 128.526 40.351C127.326 39.4238 126.793 35.3179 126.793 28.6953C126.793 18.894 126.659 18.3642 123.593 17.5695C116.659 15.8477 114.926 18.894 115.326 33.0662C115.593 41.9404 115.326 42.0728 102.126 41.543L94.1259 41.2781L93.7259 29.6225C93.5926 23.2649 92.7926 18.0993 92.1259 18.0993C91.5926 18.0993 90.2593 17.8344 89.1926 17.5695C88.2593 17.1721 86.1259 17.4371 84.5259 18.0993ZM235.859 150.152L236.126 245.914H219.193C209.726 246.046 166.126 246.179 122.126 246.311L42.1259 246.576L41.7259 150.152L41.4593 53.8609L138.393 54.1258L235.459 54.5232L235.859 150.152Z" fill="white"/>
<path d="M76.3926 78.6292C73.9926 79.8212 70.3926 82.8676 68.3926 85.3841L64.7926 90.0199V149.093C64.7926 214.258 64.526 212.404 73.326 219.821C78.7926 224.325 88.3926 224.854 150.526 223.662L201.593 222.735L206.793 217.305C211.593 212.139 211.859 211.344 212.793 200.483C213.326 194.258 213.593 167.238 213.326 140.483C212.793 92.1391 212.793 91.6093 209.726 86.7086C207.993 83.9272 204.926 80.4835 202.793 79.0265C199.193 76.51 197.059 76.3775 139.859 76.3775C87.8593 76.3775 80.2593 76.6424 76.3926 78.6292ZM198.793 89.6225C201.859 91.4769 201.859 208.298 198.793 210.152C196.126 211.874 81.4593 211.874 78.7926 210.152C77.0593 209.093 76.7926 200.881 76.3926 151.874C76.126 114.391 76.526 94.1259 77.4593 92.404C78.126 90.9471 80.126 89.4901 81.726 89.2252C88.126 88.0331 196.793 88.4305 198.793 89.6225Z" fill="white"/>
</svg>
