<svg width="278" height="203" viewBox="0 0 278 203" fill="none" xmlns="http://www.w3.org/2000/svg">
<g clip-path="url(#clip0_547_1673)">
<path d="M4.32909 4.17952C3.79576 6.84618 3.92909 9.37952 4.59576 10.0462C5.26242 10.7128 9.12909 11.3795 13.1291 11.6462L20.4624 12.0462L21.1291 106.313C21.5291 158.046 22.1958 200.846 22.7291 201.38C24.5958 203.246 31.5291 200.58 32.3291 197.646C32.7291 196.046 33.1291 184.313 33.1291 171.646V148.713H43.7958H54.4624V155.78C54.4624 159.78 54.8624 167.513 55.2624 173.113L56.1958 183.38H112.596H169.129V167.513C169.129 156.846 169.662 151.246 170.729 150.58C171.529 150.046 194.462 149.38 221.662 148.98C248.862 148.713 271.396 148.046 271.796 147.78C272.196 147.38 272.462 118.313 272.462 82.9795V18.7128L265.129 17.7795C261.129 17.3795 207.396 16.9795 145.662 16.8462L33.5291 16.7128L32.7291 9.37952C32.3291 5.37952 31.6624 1.51285 31.2624 0.846176C30.7291 0.17952 24.7291 -0.487152 17.7958 -0.487152H5.26242L4.32909 4.17952ZM260.862 82.9795L261.129 136.713H147.129H33.1291V82.9795V29.3795H146.862H260.462L260.862 82.9795ZM86.1958 149.513C88.8624 150.313 89.1291 151.113 89.1291 160.846V171.38H77.7958H66.4624V162.58C66.4624 150.313 67.6624 148.713 76.1958 148.713C80.0624 148.713 84.4624 149.113 86.1958 149.513ZM157.796 153.246C158.196 154.713 158.329 159.513 158.062 163.646L157.796 171.38H146.862H135.796V160.846V150.18L142.196 149.78C152.862 149.113 157.129 150.046 157.796 153.246ZM123.529 160.313L123.129 170.713H112.462H101.796L101.396 160.313L100.996 150.046H112.462H123.929L123.529 160.313Z" fill="white"/>
<path d="M75.7958 47.6462C58.1958 58.3129 50.1958 80.8462 57.7958 98.8462C60.3291 104.846 69.7958 114.846 76.9958 119.113C82.3291 122.313 84.5958 122.713 94.4625 122.713C108.062 122.713 114.862 120.046 123.529 111.38C131.529 103.38 134.729 96.4462 135.396 86.0462C136.596 70.0462 127.396 54.0462 112.862 46.8462C106.996 43.9128 104.196 43.3795 94.4625 43.3795C83.9291 43.3795 82.4625 43.7795 75.7958 47.6462ZM104.862 56.1795C108.729 56.9795 118.062 65.3795 120.729 70.5795C123.796 76.5795 123.529 90.0462 120.062 95.6462C108.729 113.913 88.5958 116.713 74.9958 101.646C65.6625 91.1129 64.4625 81.1129 71.3958 68.9795C77.9291 57.5128 89.5291 52.9795 104.862 56.1795Z" fill="white"/>
<path d="M90.4625 78.7128C89.1292 80.3128 88.9958 81.9128 89.9292 84.4462C90.9958 87.3795 92.0625 88.0462 95.7958 88.0462C99.7958 88.0462 100.462 87.5128 100.862 84.7128C101.262 80.4462 99.9292 78.4462 95.6625 77.3795C93.3958 76.8462 91.6625 77.2462 90.4625 78.7128Z" fill="white"/>
<path d="M182.462 45.3795C175.929 48.3129 165.529 58.8462 161.396 66.7128C156.462 76.3128 156.329 90.5795 161.396 100.046C166.062 108.98 173.396 115.78 182.996 120.18C189.929 123.38 191.929 123.646 200.462 122.98C215.262 121.913 225.262 115.646 233.129 102.58C237.396 95.3795 237.796 94.0462 237.796 84.0462C237.662 71.3795 234.462 62.9795 226.729 54.9795C218.729 46.7129 212.862 44.3129 199.129 43.7795C190.329 43.5128 185.929 43.9128 182.462 45.3795ZM213.262 59.3795C221.662 64.8462 225.529 72.1795 225.396 82.5795C225.396 92.0462 224.062 95.9128 218.996 101.913C214.196 107.646 206.196 111.38 198.196 111.38C190.196 111.38 185.529 109.646 180.062 104.313C167.129 91.9128 166.862 74.9795 179.396 63.1128C185.396 57.3795 190.462 55.3795 199.262 55.3795C205.929 55.3795 208.329 56.0462 213.262 59.3795Z" fill="white"/>
<path d="M194.996 77.7795C192.729 79.2462 191.929 84.4462 193.662 86.7129C194.729 88.1795 196.729 88.8462 199.129 88.4462C202.462 88.1795 203.262 87.3795 203.529 84.0462C204.196 78.7129 199.129 74.9795 194.996 77.7795Z" fill="white"/>
</g>
<defs>
<clipPath id="clip0_547_1673">
<rect width="277.333" height="202.667" fill="white"/>
</clipPath>
</defs>
</svg>
