<svg width="278" height="203" viewBox="0 0 278 203" fill="none" xmlns="http://www.w3.org/2000/svg">
<g clip-path="url(#clip0_547_1714)">
<path d="M20.6407 8.13333C20.2407 12.6667 19.8407 18.6667 19.8407 21.4667V26.6667H12.6407H5.30734L4.50734 32.2667C4.10734 35.4667 3.84067 61.0667 4.10734 89.3333L4.50734 140.667L12.5073 141.333L20.5073 142L20.9073 171.333C21.174 192.267 21.7073 200.8 22.774 201.467C25.3073 203.067 248.107 202.8 247.174 201.2C246.641 200.533 247.974 200 250.107 200.133C253.441 200.133 253.574 200.267 251.174 201.333C249.441 202.133 252.107 202.533 259.441 202.533C269.174 202.667 270.641 202.4 271.841 200C272.907 198 273.041 169.467 272.507 101.6C272.107 49.0667 271.707 4.66666 271.707 2.93332L271.841 -1.52588e-05H146.641H21.574L20.6407 8.13333ZM260.907 100.933L261.174 188L258.241 188.667C256.507 189.067 205.441 189.2 144.507 189.067L33.8407 188.667L33.4407 165.067L33.174 141.333H39.7073C51.4407 141.333 50.5073 146 50.5073 89.3333C50.5073 61.7333 50.1073 36.2667 49.7073 32.8L48.774 26.6667H41.0407H33.174V20V13.3333L146.907 13.6L260.507 14L260.907 100.933ZM37.174 49.3333V60H26.5073H15.8407V49.3333V38.6667H26.5073H37.174V49.3333ZM36.9073 83.6L37.3073 94.6667H26.5073H15.8407V84.2667C15.8407 78.5333 16.2407 73.3333 16.774 72.8C17.3073 72.2667 21.974 72.1333 27.174 72.2667L36.5073 72.6667L36.9073 83.6ZM37.174 118V129.333H26.5073H15.8407V118V106.667H26.5073H37.174V118Z" fill="white"/>
<path d="M104.774 36.6667C103.574 37.7333 102.374 40.4 101.841 42.5333C100.907 46.6667 98.374 48 90.9073 48C85.7073 48 85.3073 48.5333 84.6406 57.4667L84.1073 64.6666L79.0406 65.3333C73.974 66 73.8406 66.1333 73.8406 71.3333C73.8406 76.5333 73.974 76.6667 78.9073 77.0667L83.8406 77.4667V84V90.5333L78.9073 90.9333C74.1073 91.3333 73.8406 91.6 73.4406 96.2667C73.0406 101.467 73.3073 101.733 81.8406 102.933C84.1073 103.333 84.5073 104.533 84.9073 111.067C85.3073 119.467 85.3073 119.333 94.774 120.667C100.507 121.467 101.041 121.733 102.107 126.4C102.907 130 104.107 131.467 106.107 131.733C111.041 132.4 114.507 129.733 114.507 125.2C114.507 121.2 114.641 121.2 120.907 121.6C126.507 122 127.174 122.4 127.574 125.333C128.241 130.133 130.507 132.133 134.374 131.733C137.041 131.467 137.974 130.4 138.507 127.333C139.174 123.333 140.641 122.533 149.574 120.667C155.574 119.467 158.507 115.467 158.507 108.667C158.507 103.333 158.907 102.667 161.574 102.667C165.974 102.667 167.574 101.2 167.974 96.6667C168.507 93.0667 168.107 92.5333 163.574 91.4667C158.374 90.1333 157.307 88.1333 158.374 80.9333C158.641 78.5333 159.574 77.3333 161.174 77.3333C166.107 77.3333 167.841 75.7333 167.841 71.2C167.841 67.3333 167.307 66.5333 164.241 65.8667C162.107 65.4667 159.841 64.9333 158.907 64.6666C157.974 64.4 157.174 60.9333 156.907 56.4L156.507 48.6667L148.507 48C140.774 47.3333 140.641 47.2 139.707 42.8C139.174 40.4 137.841 37.4667 136.774 36.4C133.974 33.6 129.307 35.3333 128.374 39.7333C127.974 41.7333 127.174 44.2667 126.641 45.3333C124.374 49.6 112.374 47.7333 113.974 43.3333C115.041 40.8 111.041 34.6667 108.507 34.6667C107.574 34.6667 105.841 35.6 104.774 36.6667ZM144.107 60.9333C144.374 61.6 144.374 72.4 144.107 84.9333L143.574 108H120.374H97.174V84V60H120.374C133.174 60 143.841 60.4 144.107 60.9333Z" fill="white"/>
<path d="M193.441 36.2667C192.241 37.4667 191.841 50.1333 191.841 84.9333V132H197.841H203.841V84.1333C203.841 41.7333 203.574 36.1333 201.707 35.4667C198.374 34.2667 195.174 34.5333 193.441 36.2667Z" fill="white"/>
<path d="M228.907 35.6C226.641 36.1333 226.507 39.2 226.241 72.4C226.107 92.4 225.974 112.8 225.974 118C225.841 130.667 226.507 132 233.174 132H238.507V92.2667C238.507 70.5333 238.107 48.6667 237.574 43.6C236.774 34.1333 236.241 33.6 228.907 35.6Z" fill="white"/>
<path d="M74.2407 155.467C73.5741 156 73.1741 158.8 73.1741 161.6V166.667H90.3741C108.907 166.667 109.174 166.533 109.174 159.2C109.174 156.267 108.641 156 102.107 156C98.1074 156 90.5074 155.6 85.0407 155.2C79.5741 154.8 74.7741 154.8 74.2407 155.467Z" fill="white"/>
<path d="M133.707 156.4C133.307 157.467 133.174 160.133 133.441 162.267L133.841 166L150.641 166.4L167.574 166.8L168.107 162C168.374 159.333 168.374 156.933 167.974 156.8C167.574 156.533 159.841 155.867 150.907 155.333C136.907 154.533 134.374 154.667 133.707 156.4Z" fill="white"/>
<path d="M193.174 160.533C193.174 165.2 193.307 165.333 197.974 165.333C202.507 165.333 202.641 165.2 202.241 160.933C201.841 157.2 201.307 156.667 197.574 156.267C193.307 155.867 193.174 156 193.174 160.533Z" fill="white"/>
<path d="M228.107 160.933C228.507 165.6 228.907 166 232.907 166.4C237.041 166.8 237.174 166.667 237.174 161.467C237.174 156.133 237.041 156 232.374 156C227.707 156 227.707 156.133 228.107 160.933Z" fill="white"/>
</g>
<defs>
<clipPath id="clip0_547_1714">
<rect width="277.333" height="202.667" fill="white" transform="translate(0 0.333374)"/>
</clipPath>
</defs>
</svg>
