<svg width="277" height="276" viewBox="0 0 277 276" fill="none" xmlns="http://www.w3.org/2000/svg">
<path d="M49.1333 3.79999C44.6 6.06665 42.7333 8.06665 40.2 13.4L37 20.2V132.467C37 248.867 37.2667 254.733 42.6 261.533C49.1333 269.8 45.5333 269.533 136.333 269.533C227.267 269.533 225.667 269.667 233 261.4L237 256.733L236.733 134.867L236.333 13L232.333 8.73331C224.6 0.599976 227.533 0.866638 137.4 0.866638C56.2 0.999969 54.8667 0.999969 49.1333 3.79999ZM223.133 15.8L226.333 18.8666V135.8V252.733L222.6 254.733C220.467 255.8 215.667 257.133 211.933 257.667C205.267 258.467 205 258.467 205 255.4C204.733 243 203.133 226.6 202.067 225.133C201 223.933 186.867 223.533 136.467 223.8L72.3333 224.2L71.9333 241.4L71.5333 258.6L63.2667 257.667C49 256.067 50.3333 268.333 50.3333 135.133V19L53.2667 15.9333L56.0667 12.8666H138.067H219.933L223.133 15.8ZM101.533 245.533C102.067 251.133 102.067 256.2 101.667 256.867C100.733 258.333 89.1333 258.733 85.8 257.4C84.0667 256.733 83.6667 254.467 83.6667 246.067V235.533H92.2H100.6L101.533 245.533ZM131.667 246.867V258.333L123.4 257.933L115 257.533L114.6 246.467L114.2 235.533H123H131.667V246.867ZM162.067 246.467L161.667 257.533L155.8 257.933C144.333 258.733 143.667 258.2 143.667 247C143.667 241.667 144.067 236.867 144.6 236.467C145 235.933 149.267 235.533 153.933 235.533H162.467L162.067 246.467ZM191.667 246.867V258.2H183H174.333V246.867V235.533H183H191.667V246.867Z" fill="white"/>
<path d="M76.2 110.067C70.0666 113.8 67.6666 117.933 67.6666 124.867C67.6666 135 73.1333 139.933 86.0666 141.667C92.6 142.467 93 142.733 93 146.333V150.2H83.8C71.2666 150.2 67.6666 151.667 67.6666 156.733C67.6666 159.4 68.6 161.267 70.2 162.2C74.0666 164.2 89.6666 163.8 95 161.667C103.8 157.933 107.8 145.267 102.733 136.733C100.333 132.733 93.9333 129.8 84.6 128.2C81.8 127.8 79.1333 126.467 78.7333 125.4C77.2666 121.667 80.7333 120.333 90.3333 120.6C101.4 121.133 105 119.533 105 114.2C105 108.867 101.933 107.533 90.0666 107.533C82.8666 107.533 79.2666 108.2 76.2 110.067Z" fill="white"/>
<path d="M127.8 110.067C122.2 113 119.8 117.267 119.667 124.467C119.667 135.267 123.267 139.133 136.333 141.533C143.667 142.867 144.333 143.267 144.733 146.6L145.133 150.2H135.4C121.533 150.2 119.667 151 119.667 156.067C119.667 163.4 120.733 163.8 134.2 163.4C146.067 162.867 146.333 162.733 151.133 158.067C157.8 151.4 158.733 144.2 153.8 136.867C150.333 131.667 149.8 131.4 135.667 127.933C132.333 127.133 131 126.067 131 124.2C131 121.8 132.2 121.4 142.467 120.733C148.733 120.333 154.6 119.533 155.4 119C158.067 117.4 157.267 110.467 154.467 108.867C150.067 106.6 133 107.267 127.8 110.067Z" fill="white"/>
<path d="M172.733 109C170.6 110.2 170.333 113 170.333 135.533C170.333 164.6 169.8 163.533 183.267 163.533C192.333 163.533 200.6 160.2 204.733 154.867C207.4 151.533 207.667 149.533 207.667 136.067C207.667 127.8 207 119.533 206.2 117.8C205.4 116.067 202.333 113 199.267 111.133C194.6 108.067 192.333 107.533 184.333 107.533C179.267 107.533 173.933 108.2 172.733 109ZM193.133 120.867C195.4 122.067 195.667 123.8 195.667 134.733C195.667 148.333 195 149.533 188.067 151C184.6 151.667 183.933 151.267 183.267 148.6C182.067 144.467 182.067 121.533 183.267 120.467C184.6 119.133 190.2 119.4 193.133 120.867Z" fill="white"/>
<path d="M240.333 134.867C240.333 201.667 240.467 228.733 240.6 195.133C240.867 161.533 240.867 106.867 240.6 73.8C240.467 40.6 240.333 68.0666 240.333 134.867Z" fill="white"/>
<path d="M69.2667 273.8C73.5333 274.067 80.4667 274.067 84.6 273.8C88.8667 273.533 85.4 273.4 77 273.4C68.6 273.4 65.1333 273.533 69.2667 273.8Z" fill="white"/>
<path d="M105.4 273.8C107.4 274.067 110.6 274.067 112.733 273.8C114.733 273.533 113 273.267 109 273.267C105 273.267 103.267 273.533 105.4 273.8Z" fill="white"/>
<path d="M137.4 273.8C138.6 274.067 140.467 274.067 141.4 273.8C142.2 273.4 141.267 273.133 139 273.133C136.867 273.133 136.067 273.4 137.4 273.8Z" fill="white"/>
<path d="M168.067 273.8C170.733 274.067 175.267 274.067 178.067 273.8C180.733 273.533 178.467 273.267 173 273.267C167.533 273.267 165.267 273.533 168.067 273.8Z" fill="white"/>
</svg>
